<svg width="9" height="6" viewBox="0 0 9 6" fill="none" xmlns="http://www.w3.org/2000/svg">
<path fill-rule="evenodd" clip-rule="evenodd" d="M7.40789 0.333174C7.73426 0.422734 7.9913 0.686621 8.07853 1.02173C8.23704 1.62909 8.23704 2.89634 8.23704 2.89634C8.23704 2.89634 8.23704 4.16354 8.07853 4.77094C7.9913 5.10605 7.73426 5.36994 7.40789 5.45954C6.81641 5.62226 4.44445 5.62226 4.44445 5.62226C4.44445 5.62226 2.07248 5.62226 1.48097 5.45954C1.15459 5.36994 0.897555 5.10605 0.810326 4.77094C0.651855 4.16354 0.651855 2.89634 0.651855 2.89634C0.651855 2.89634 0.651855 1.62909 0.810326 1.02173C0.897555 0.686621 1.15459 0.422734 1.48097 0.333174C2.07248 0.17041 4.44445 0.17041 4.44445 0.17041C4.44445 0.17041 6.81641 0.17041 7.40789 0.333174ZM3.73334 1.82964V4.20001L5.62964 3.01487L3.73334 1.82964Z" fill="white"/>
</svg>
