<svg width="11" height="11" viewBox="0 0 11 11" fill="none" xmlns="http://www.w3.org/2000/svg">
<path fill-rule="evenodd" clip-rule="evenodd" d="M10.4254 1.01907C10.5461 1.1398 10.587 1.31901 10.5306 1.48016L7.41949 10.3691C7.35929 10.5411 7.20019 10.6589 7.01811 10.6663C6.83603 10.6737 6.66787 10.5693 6.59386 10.4027L4.8855 6.55894L1.04171 4.85059C0.875187 4.77658 0.770714 4.60842 0.778143 4.42634C0.785571 4.24426 0.903395 4.08516 1.0754 4.02496L9.96428 0.91385C10.1254 0.857447 10.3046 0.898345 10.4254 1.01907ZM5.75233 6.32066L6.95084 9.01731L9.04823 3.02476L5.75233 6.32066ZM8.41969 2.39622L2.42714 4.49361L5.12379 5.69212L8.41969 2.39622Z" fill="white"/>
</svg>
