<svg width="8" height="7" viewBox="0 0 8 7" fill="none" xmlns="http://www.w3.org/2000/svg">
<path fill-rule="evenodd" clip-rule="evenodd" d="M3.89814 2.44668L3.91306 2.69274L3.66435 2.66261C2.75907 2.54712 1.96819 2.15543 1.29669 1.49759L0.968405 1.17119L0.883846 1.41222C0.70478 1.94954 0.819183 2.51699 1.19224 2.89863C1.3912 3.10954 1.34644 3.13967 1.00322 3.01413C0.883846 2.97396 0.779391 2.94383 0.769442 2.95889C0.734624 2.99404 0.854002 3.45101 0.948509 3.63179C1.07784 3.88287 1.34146 4.12893 1.62996 4.27456L1.87369 4.39006L1.58519 4.39508C1.30664 4.39508 1.29669 4.4001 1.32654 4.50556C1.42602 4.83196 1.81897 5.17846 2.25669 5.32911L2.56508 5.43456L2.29648 5.59525C1.89856 5.82625 1.43099 5.95681 0.963431 5.96686C0.739598 5.97188 0.555557 5.99196 0.555557 6.00703C0.555557 6.05724 1.16239 6.33846 1.51555 6.44893C2.57503 6.77534 3.83347 6.63473 4.77855 6.07733C5.45005 5.68062 6.12155 4.89222 6.43491 4.12893C6.60403 3.72218 6.77315 2.97898 6.77315 2.62244C6.77315 2.39145 6.78807 2.36132 7.06662 2.08512C7.23077 1.92443 7.38496 1.74867 7.41481 1.69846C7.46455 1.60305 7.45957 1.60305 7.2059 1.68842C6.7831 1.83906 6.72341 1.81898 6.93232 1.593C7.08652 1.43231 7.27056 1.14106 7.27056 1.05569C7.27056 1.04062 7.19595 1.06573 7.11139 1.11093C7.02186 1.16114 6.82289 1.23647 6.67367 1.28166L6.40507 1.36703L6.16134 1.20132C6.02704 1.11093 5.83803 1.01049 5.73854 0.980363C5.48487 0.91006 5.09689 0.920104 4.86808 1.00045C4.24632 1.22642 3.85337 1.80893 3.89814 2.44668Z" fill="white"/>
</svg>
