<svg width="9" height="9" viewBox="0 0 9 9" fill="none" xmlns="http://www.w3.org/2000/svg">
<path fill-rule="evenodd" clip-rule="evenodd" d="M4.4448 0.985199C3.41478 0.985199 3.28551 0.989703 2.88097 1.00811C2.47721 1.0266 2.20161 1.09052 1.96046 1.18431C1.71102 1.28118 1.49942 1.41076 1.28862 1.62165C1.07765 1.83246 0.948068 2.04405 0.850882 2.29342C0.756856 2.53465 0.692856 2.81032 0.674683 3.21392C0.656589 3.61847 0.651848 3.74782 0.651848 4.77783C0.651848 5.80785 0.656431 5.93672 0.674762 6.34126C0.69333 6.74502 0.757251 7.02062 0.850961 7.26177C0.94791 7.51121 1.07749 7.72281 1.28838 7.93362C1.49911 8.14458 1.7107 8.27448 1.95999 8.37135C2.2013 8.46514 2.47697 8.52906 2.88065 8.54755C3.2852 8.56596 3.41439 8.57046 4.44432 8.57046C5.47442 8.57046 5.60329 8.56596 6.00784 8.54755C6.41159 8.52906 6.68751 8.46514 6.92881 8.37135C7.17818 8.27448 7.38946 8.14458 7.60019 7.93362C7.81115 7.72281 7.94073 7.51121 8.03792 7.26185C8.13116 7.02062 8.19516 6.74494 8.21412 6.34134C8.23229 5.9368 8.23703 5.80785 8.23703 4.77783C8.23703 3.74782 8.23229 3.61855 8.21412 3.214C8.19516 2.81024 8.13116 2.53465 8.03792 2.2935C7.94073 2.04405 7.81115 1.83246 7.60019 1.62165C7.38922 1.41068 7.17826 1.2811 6.92858 1.18431C6.6868 1.09052 6.41104 1.0266 6.00728 1.00811C5.60273 0.989703 5.47394 0.985199 4.44361 0.985199H4.4448ZM4.10455 1.66865C4.20553 1.66849 4.3182 1.66865 4.44478 1.66865C5.45741 1.66865 5.57743 1.67229 5.97732 1.69046C6.3471 1.70737 6.54779 1.76916 6.68148 1.82107C6.85847 1.88981 6.98466 1.97198 7.11732 2.10473C7.25006 2.23747 7.33224 2.36389 7.40114 2.54088C7.45305 2.67441 7.51491 2.8751 7.53174 3.24489C7.54992 3.64469 7.55387 3.76479 7.55387 4.77695C7.55387 5.78911 7.54992 5.90921 7.53174 6.30902C7.51484 6.6788 7.45305 6.87949 7.40114 7.01302C7.33239 7.19001 7.25006 7.31604 7.11732 7.4487C6.98458 7.58145 6.85855 7.66362 6.68148 7.73236C6.54795 7.78451 6.3471 7.84614 5.97732 7.86305C5.57751 7.88122 5.45741 7.88517 4.44478 7.88517C3.43207 7.88517 3.31205 7.88122 2.91224 7.86305C2.54246 7.84598 2.34177 7.78419 2.208 7.73228C2.03101 7.66354 1.90459 7.58137 1.77184 7.44862C1.6391 7.31588 1.55693 7.18978 1.48803 7.01271C1.43612 6.87918 1.37425 6.67848 1.35742 6.3087C1.33925 5.90889 1.33561 5.78879 1.33561 4.776C1.33561 3.76321 1.33925 3.64374 1.35742 3.24394C1.37433 2.87416 1.43612 2.67346 1.48803 2.53977C1.55677 2.36278 1.6391 2.23636 1.77184 2.10362C1.90459 1.97088 2.03101 1.8887 2.208 1.8198C2.34169 1.76766 2.54246 1.70603 2.91224 1.68904C3.26211 1.67323 3.3977 1.66849 4.10455 1.6677V1.66865ZM6.46926 2.29839C6.218 2.29839 6.01414 2.50201 6.01414 2.75335C6.01414 3.00461 6.218 3.20846 6.46926 3.20846C6.72052 3.20846 6.92437 3.00461 6.92437 2.75335C6.92437 2.50208 6.72052 2.29839 6.46926 2.29839ZM4.4448 2.83015C3.3692 2.83015 2.49713 3.70221 2.49713 4.77782C2.49713 5.85343 3.3692 6.7251 4.4448 6.7251C5.52041 6.7251 6.39216 5.85343 6.39216 4.77782C6.39216 3.70221 5.52041 2.83015 4.4448 2.83015ZM4.44479 3.51361C5.14295 3.51361 5.709 4.07958 5.709 4.77782C5.709 5.47598 5.14295 6.04203 4.44479 6.04203C3.74655 6.04203 3.18058 5.47598 3.18058 4.77782C3.18058 4.07958 3.74655 3.51361 4.44479 3.51361Z" fill="white"/>
</svg>
