<svg width="9" height="9" viewBox="0 0 9 9" fill="none" xmlns="http://www.w3.org/2000/svg">
<path fill-rule="evenodd" clip-rule="evenodd" d="M8.57037 4.77253C8.57037 5.02902 8.54426 5.28515 8.49297 5.53482C8.44296 5.77855 8.36888 6.01784 8.27184 6.24659C8.17703 6.4713 8.05943 6.68784 7.92202 6.88977C7.78665 7.09043 7.63071 7.27869 7.4594 7.45029C7.28772 7.62116 7.09882 7.77667 6.89826 7.91261C6.69566 8.04908 6.47881 8.16651 6.25397 8.26176C6.02489 8.35829 5.78505 8.43226 5.54152 8.48218C5.29153 8.5336 5.03446 8.55985 4.77761 8.55985C4.52056 8.55985 4.26351 8.5336 4.01387 8.48218C3.76997 8.43226 3.53014 8.35829 3.30124 8.26176C3.07642 8.16651 2.85936 8.04908 2.65676 7.91261C2.45619 7.77669 2.2673 7.62116 2.09599 7.45029C1.92451 7.27869 1.76856 7.09043 1.633 6.88977C1.49633 6.68784 1.37854 6.47128 1.28335 6.24659C1.1863 6.01784 1.11205 5.77854 1.06186 5.53482C1.01112 5.28515 0.985184 5.02902 0.985184 4.77253C0.985184 4.51586 1.0111 4.25918 1.06187 4.01006C1.11206 3.76632 1.18631 3.52666 1.28337 3.29828C1.37855 3.07341 1.49634 2.85668 1.63302 2.65473C1.76858 2.45391 1.92452 2.26601 2.096 2.09421C2.26731 1.92333 2.45621 1.76819 2.65677 1.63245C2.85937 1.49541 3.07643 1.378 3.30125 1.28257C3.53016 1.18583 3.76997 1.11169 4.01388 1.06213C4.26352 1.0111 4.52057 0.985199 4.77762 0.985199C5.03448 0.985199 5.29153 1.0111 5.54154 1.06213C5.78506 1.1117 6.02489 1.18585 6.25399 1.28257C6.47881 1.37798 6.69568 1.49541 6.89827 1.63245C7.09884 1.76819 7.28775 1.92333 7.45941 2.09421C7.63072 2.26601 7.78666 2.45391 7.92203 2.65473C8.05943 2.85668 8.17703 3.07343 8.27184 3.29828C8.36888 3.52666 8.44296 3.76632 8.49297 4.01006C8.54426 4.25918 8.57037 4.51586 8.57037 4.77253ZM3.39567 1.84715C2.49246 2.27304 1.81835 3.10411 1.60815 4.10568C1.69354 4.10642 3.04324 4.12344 4.59832 3.71085C4.03774 2.7163 3.43882 1.90467 3.39567 1.84715ZM4.86666 4.20888C3.19899 4.70743 1.59871 4.67155 1.54131 4.66935C1.54037 4.70411 1.53871 4.73775 1.53871 4.77253C1.53871 5.6034 1.85261 6.36086 2.36857 6.9336C2.36745 6.93193 3.25381 5.36171 5.00167 4.79731C5.04389 4.78326 5.08686 4.77068 5.12945 4.75848C5.04816 4.57467 4.95944 4.39048 4.86666 4.20888ZM6.9166 2.34516C6.34637 1.84307 5.59764 1.53852 4.77759 1.53852C4.51443 1.53852 4.25904 1.57033 4.0144 1.62913C4.06292 1.69423 4.67129 2.50014 5.2252 3.51575C6.44731 3.05825 6.90863 2.35699 6.9166 2.34516ZM5.35023 5.2944C5.34302 5.29678 5.3358 5.29884 5.32875 5.30142C3.41776 5.96666 2.7937 7.30731 2.78695 7.32195C3.3368 7.74894 4.02647 8.00655 4.77762 8.00655C5.22615 8.00655 5.65339 7.91536 6.04211 7.75024C5.99415 7.46767 5.80599 6.4772 5.35023 5.2944ZM6.5875 7.45473C7.31476 6.96467 7.83126 6.1865 7.97534 5.28513C7.90867 5.26368 7.00251 4.97723 5.95708 5.14459C6.38192 6.31039 6.55453 7.25982 6.5875 7.45473ZM5.4745 3.99768C5.54968 4.15191 5.62247 4.30889 5.68969 4.46665C5.71359 4.52325 5.73693 4.57873 5.7597 4.6342C6.87234 4.49439 7.96851 4.72962 8.01538 4.73922C8.00797 3.97252 7.73332 3.26887 7.27886 2.71798C7.27275 2.72665 6.75328 3.47617 5.4745 3.99768Z" fill="white"/>
</svg>
