<svg width="6" height="6" viewBox="0 0 6 6" fill="none" xmlns="http://www.w3.org/2000/svg">
<path d="M2.91063 1.18998C3.04368 0.780509 3.62297 0.780509 3.75602 1.18998L4.03181 2.03879C4.09131 2.22191 4.26196 2.3459 4.45451 2.3459H5.347C5.77754 2.3459 5.95656 2.89684 5.60824 3.1499L4.8862 3.6745C4.73042 3.78768 4.66524 3.98828 4.72474 4.1714L5.00054 5.02022C5.13358 5.42969 4.66493 5.77019 4.31661 5.51712L3.59456 4.99253C3.43879 4.87935 3.22786 4.87935 3.07209 4.99253L2.35004 5.51712C2.00173 5.77019 1.53307 5.42969 1.66612 5.02022L1.94191 4.1714C2.00141 3.98828 1.93623 3.78768 1.78046 3.6745L1.05841 3.1499C0.710097 2.89684 0.889108 2.3459 1.31965 2.3459H2.21215C2.40469 2.3459 2.57534 2.22191 2.63484 2.03879L2.91063 1.18998Z" fill="#FFC806"/>
</svg>
