<svg width="19" height="11" viewBox="0 0 19 11" fill="none" xmlns="http://www.w3.org/2000/svg">
<path d="M1.54988 7.14653L3.89967 9.49632C3.90112 9.49777 3.90269 9.49911 3.90414 9.50057C3.90559 9.50202 3.90732 9.50397 3.909 9.50565C4.5947 10.1913 5.4987 10.6155 6.46429 10.7046C7.42989 10.7938 8.3962 10.5424 9.19594 9.994C9.99568 10.5424 10.962 10.7938 11.9276 10.7046C12.8932 10.6155 13.7972 10.1913 14.4829 9.50565L16.8327 7.15591C17.5648 6.42362 17.997 5.44429 18.0446 4.40991C18.0922 3.37552 17.7517 2.36061 17.09 1.56417C16.4282 0.767785 15.4928 0.247209 14.4672 0.104584C13.4416 -0.0380406 12.3996 0.207504 11.5457 0.793137C10.8542 0.318968 10.0355 0.0651028 9.19712 0.0648233C8.35868 0.0646001 7.53984 0.318018 6.84811 0.791796C5.99515 0.202533 4.95266 -0.0464184 3.92547 0.0937497C2.89828 0.233973 1.96067 0.753151 1.29674 1.54943C0.632872 2.3457 0.290774 3.36144 0.337571 4.39707C0.384425 5.43274 0.816821 6.41344 1.54988 7.14653ZM12.8217 1.96982C13.3521 1.71646 13.9551 1.65883 14.5239 1.80704C15.0928 1.95519 15.591 2.29974 15.9304 2.77972C16.2698 3.2597 16.4286 3.84416 16.3787 4.4299C16.3289 5.01565 16.0736 5.56492 15.658 5.98063L13.3082 8.33042C12.9435 8.69465 12.475 8.93706 11.967 9.02434C11.459 9.11161 10.9364 9.03949 10.471 8.81788L12.1332 7.15591C12.7706 6.52181 13.1832 5.69671 13.3082 4.80635C13.3357 4.61167 13.3496 4.41533 13.3498 4.2187C13.3514 3.44141 13.1334 2.67948 12.721 2.02064C12.7542 2.00288 12.7878 1.98601 12.8217 1.96999L12.8217 1.96982ZM7.43363 2.45622C7.90154 1.99138 8.53464 1.73103 9.19421 1.73209C9.85378 1.73321 10.486 1.99573 10.9524 2.46208C11.4187 2.92849 11.6813 3.5607 11.6824 4.22026C11.6834 4.87984 11.4231 5.51291 10.9583 5.98085L9.19594 7.74316L7.43363 5.98085C6.96705 5.5131 6.70504 4.87939 6.70504 4.2187C6.70504 3.55807 6.96705 2.92436 7.43363 2.45661L7.43363 2.45622ZM2.72478 2.44689C3.09122 2.08139 3.56221 1.83886 4.07256 1.75281C4.58292 1.66675 5.1074 1.74147 5.57342 1.96664C5.60693 1.98277 5.6401 1.9997 5.67288 2.0174C5.25913 2.67697 5.04045 3.44013 5.04212 4.2187C5.04229 4.41533 5.05614 4.61167 5.08367 4.80634C5.20865 5.69671 5.62133 6.52181 6.25873 7.15591L7.9107 8.80782L7.92003 8.81715C7.4549 9.03867 6.9326 9.11084 6.42481 9.02377C5.91702 8.93669 5.44866 8.69464 5.08389 8.33081C5.08222 8.32913 5.08065 8.32735 5.07904 8.32567C5.07741 8.32399 5.07602 8.32288 5.07457 8.32143L2.73578 5.98264L2.72461 5.97147C2.25725 5.50406 1.99468 4.87012 1.99468 4.20915C1.99468 3.54819 2.25725 2.91425 2.72461 2.44684L2.72478 2.44689Z" fill="white"/>
</svg>
