<svg width="69" height="22" viewBox="0 0 69 22" fill="none" xmlns="http://www.w3.org/2000/svg">
<path d="M35.8824 5.80452C35.8824 6.57328 35.2656 7.19257 34.4999 7.19257C33.7341 7.19257 33.1173 6.57328 33.1173 5.80452C33.1173 5.03575 33.7129 4.41646 34.4999 4.41646C35.2868 4.43782 35.8824 5.0571 35.8824 5.80452ZM30.1821 8.60198C30.1821 8.73011 30.1821 8.94365 30.1821 8.94365C30.1821 8.94365 29.5227 8.08947 28.1189 8.08947C25.8005 8.08947 23.9925 9.86191 23.9925 12.3177C23.9925 14.7521 25.7792 16.5459 28.1189 16.5459C29.544 16.5459 30.1821 15.6704 30.1821 15.6704V16.0334C30.1821 16.2042 30.3097 16.3324 30.4798 16.3324H32.2027V8.30301C32.2027 8.30301 30.6287 8.30301 30.4798 8.30301C30.3097 8.30301 30.1821 8.4525 30.1821 8.60198ZM30.1821 13.7485C29.863 14.2183 29.2249 14.624 28.4592 14.624C27.0979 14.624 26.0557 13.7698 26.0557 12.3177C26.0557 10.8656 27.0979 10.0114 28.4592 10.0114C29.2036 10.0114 29.8843 10.4385 30.1821 10.8869V13.7485ZM33.4789 8.30301H35.5208V16.3324H33.4789V8.30301ZM63.98 8.08947C62.5762 8.08947 61.9168 8.94365 61.9168 8.94365V4.43782H59.8749V16.3324C59.8749 16.3324 61.4489 16.3324 61.5978 16.3324C61.7679 16.3324 61.8956 16.1829 61.8956 16.0334V15.6704C61.8956 15.6704 62.5549 16.5459 63.9587 16.5459C66.2772 16.5459 68.0851 14.7521 68.0851 12.3177C68.0851 9.88326 66.2772 8.08947 63.98 8.08947ZM63.6397 14.6026C62.8527 14.6026 62.2359 14.1969 61.9168 13.7271V10.8656C62.2359 10.4385 62.9165 9.99003 63.6397 9.99003C65.001 9.99003 66.0432 10.8442 66.0432 12.2963C66.0432 13.7485 65.001 14.6026 63.6397 14.6026ZM58.8114 11.5703V16.3537H56.7695V11.8052C56.7695 10.4812 56.3441 9.94732 55.1955 9.94732C54.5787 9.94732 53.9406 10.2676 53.5365 10.7374V16.3324H51.4946V8.30301H53.1111C53.2812 8.30301 53.4088 8.4525 53.4088 8.60198V8.94365C54.0044 8.32437 54.7914 8.08947 55.5784 8.08947C56.4717 8.08947 57.2162 8.34572 57.8117 8.85824C58.5349 9.45617 58.8114 10.2249 58.8114 11.5703ZM46.5387 8.08947C45.1348 8.08947 44.4755 8.94365 44.4755 8.94365V4.43782H42.4336V16.3324C42.4336 16.3324 44.0075 16.3324 44.1564 16.3324C44.3266 16.3324 44.4542 16.1829 44.4542 16.0334V15.6704C44.4542 15.6704 45.1136 16.5459 46.5174 16.5459C48.8358 16.5459 50.6438 14.7521 50.6438 12.3177C50.665 9.88326 48.8571 8.08947 46.5387 8.08947ZM46.1983 14.6026C45.4113 14.6026 44.7945 14.1969 44.4755 13.7271V10.8656C44.7945 10.4385 45.4752 9.99003 46.1983 9.99003C47.5596 9.99003 48.6018 10.8442 48.6018 12.2963C48.6018 13.7485 47.5596 14.6026 46.1983 14.6026ZM40.6681 8.08947C41.285 8.08947 41.604 8.19624 41.604 8.19624V10.0968C41.604 10.0968 39.9024 9.52023 38.8389 10.7374V16.3537H36.797V8.30301C36.797 8.30301 38.371 8.30301 38.5199 8.30301C38.69 8.30301 38.8177 8.4525 38.8177 8.60198V8.94365C39.2005 8.49521 40.03 8.08947 40.6681 8.08947ZM19.462 15.6063C19.3557 15.3501 19.2493 15.0725 19.143 14.8375C18.9728 14.4532 18.8026 14.0901 18.6537 13.7485L18.6325 13.7271C17.1649 10.5239 15.5909 7.27799 13.9318 4.07479L13.868 3.94666C13.6978 3.62634 13.5277 3.28466 13.3575 2.94299C13.1448 2.5586 12.9321 2.15286 12.5918 1.76848C11.9112 0.914292 10.9328 0.444489 9.89053 0.444489C8.82703 0.444489 7.86988 0.914292 7.16798 1.72577C6.84893 2.11015 6.61496 2.51589 6.40226 2.90028C6.2321 3.24195 6.06194 3.58363 5.89178 3.90395L5.82797 4.03208C4.19018 7.23528 2.59494 10.4812 1.12731 13.6844L1.10604 13.7271C0.95715 14.0688 0.786991 14.4318 0.616831 14.8162C0.510481 15.0511 0.404132 15.3074 0.297782 15.585C0.0212724 16.3751 -0.0638074 17.1225 0.0425424 17.8913C0.276512 19.4929 1.34001 20.8382 2.80764 21.4361C3.36065 21.671 3.93494 21.7778 4.5305 21.7778C4.70066 21.7778 4.91336 21.7565 5.08352 21.7351C5.78543 21.6497 6.50861 21.4148 7.21052 21.0091C8.08258 20.5179 8.91211 19.8132 9.84799 18.7882C10.7839 19.8132 11.6347 20.5179 12.4855 21.0091C13.1874 21.4148 13.9105 21.6497 14.6125 21.7351C14.7826 21.7565 14.9953 21.7778 15.1655 21.7778C15.761 21.7778 16.3566 21.671 16.8883 21.4361C18.3772 20.8382 19.4195 19.4715 19.6534 17.8913C19.8236 17.1439 19.7385 16.3964 19.462 15.6063ZM9.86926 16.7168C8.72068 15.2646 7.97623 13.8979 7.72099 12.7448C7.61465 12.2536 7.59338 11.8265 7.65719 11.4422C7.69972 11.1005 7.82734 10.8015 7.9975 10.5453C8.40163 9.96868 9.08227 9.60565 9.86926 9.60565C10.6562 9.60565 11.3582 9.94732 11.741 10.5453C11.9112 10.8015 12.0388 11.1005 12.0813 11.4422C12.1451 11.8265 12.1239 12.275 12.0175 12.7448C11.7623 13.8766 11.0178 15.2433 9.86926 16.7168ZM18.356 17.7204C18.2071 18.8309 17.4626 19.7918 16.4204 20.2189C15.9099 20.4325 15.3569 20.4965 14.8039 20.4325C14.2721 20.3684 13.7404 20.1976 13.1874 19.8773C12.4217 19.4502 11.6559 18.7882 10.7626 17.8059C12.1664 16.0761 13.0172 14.4959 13.3363 13.0865C13.4852 12.4245 13.5064 11.8265 13.4426 11.2713C13.3575 10.7374 13.1661 10.2463 12.8683 9.8192C12.209 8.85824 11.1029 8.30301 9.86926 8.30301C8.6356 8.30301 7.52956 8.87959 6.8702 9.8192C6.57242 10.2463 6.38099 10.7374 6.29591 11.2713C6.21083 11.8265 6.2321 12.4458 6.40226 13.0865C6.72131 14.4959 7.59338 16.0975 8.97592 17.8272C8.10385 18.8095 7.31686 19.4715 6.55115 19.8986C5.99813 20.2189 5.46638 20.3898 4.93463 20.4538C4.36034 20.5179 3.80732 20.4325 3.31811 20.2403C2.27589 19.8132 1.53144 18.8522 1.38255 17.7418C1.31874 17.2079 1.36128 16.6741 1.57398 16.0761C1.63779 15.8626 1.74414 15.649 1.85049 15.3928C1.99938 15.0511 2.16954 14.6881 2.3397 14.325L2.36097 14.2823C3.82859 11.1005 5.40257 7.85457 7.04036 4.69407L7.10417 4.56594C7.27433 4.24562 7.44449 3.90395 7.61465 3.58363C7.7848 3.24195 7.97623 2.92163 8.2102 2.64402C8.65687 2.13151 9.25243 1.8539 9.9118 1.8539C10.5712 1.8539 11.1667 2.13151 11.6134 2.64402C11.8474 2.92163 12.0388 3.24195 12.209 3.58363C12.3791 3.90395 12.5493 4.24562 12.7194 4.56594L12.7832 4.69407C14.3998 7.87592 15.9737 11.1218 17.4414 14.3037V14.325C17.6115 14.6667 17.7604 15.0511 17.9306 15.3928C18.0369 15.649 18.1433 15.8626 18.2071 16.0761C18.3772 16.6313 18.441 17.1652 18.356 17.7204Z" fill="#999999"/>
</svg>
