<svg width="16" height="8" viewBox="0 0 16 8" fill="none" xmlns="http://www.w3.org/2000/svg">
<path d="M15.2951 5.24998C15.2951 5.64781 15.1296 6.02934 14.8351 6.31064C14.5406 6.59195 14.1412 6.74998 13.7248 6.74998H12.9396C12.5231 6.74998 12.1237 6.59195 11.8292 6.31064C11.5347 6.02934 11.3693 5.64781 11.3693 5.24998V2.99998C11.3693 2.60216 11.5347 2.22063 11.8292 1.93932C12.1237 1.65802 12.5231 1.49998 12.9396 1.49998H15.2951V5.24998ZM1.16226 5.24998C1.16226 5.64781 1.32771 6.02934 1.6222 6.31064C1.91669 6.59195 2.3161 6.74998 2.73257 6.74998H3.51773C3.9342 6.74998 4.33362 6.59195 4.62811 6.31064C4.9226 6.02934 5.08804 5.64781 5.08804 5.24998V2.99998C5.08804 2.60216 4.9226 2.22063 4.62811 1.93932C4.33362 1.65802 3.9342 1.49998 3.51773 1.49998H1.16226V5.24998Z" stroke="black" stroke-width="1.33333" stroke-linecap="round" stroke-linejoin="round"/>
</svg>
