<svg width="49" height="48" viewBox="0 0 49 48" fill="none" xmlns="http://www.w3.org/2000/svg">
<rect x="0.888885" y="-1.52588e-05" width="48" height="48" rx="24" fill="#C7EEFF"/>
<path d="M18.1623 28.5V24C18.1623 22.2098 18.9068 20.4929 20.232 19.227C21.5572 17.9611 23.3545 17.25 25.2287 17.25C27.1028 17.25 28.9002 17.9611 30.2254 19.227C31.5506 20.4929 32.2951 22.2098 32.2951 24V28.5" stroke="black" stroke-width="1.33333" stroke-linecap="round" stroke-linejoin="round"/>
<path d="M32.2951 29.25C32.2951 29.6478 32.1296 30.0293 31.8351 30.3106C31.5406 30.5919 31.1412 30.75 30.7248 30.75H29.9396C29.5231 30.75 29.1237 30.5919 28.8292 30.3106C28.5347 30.0293 28.3693 29.6478 28.3693 29.25V27C28.3693 26.6022 28.5347 26.2206 28.8292 25.9393C29.1237 25.658 29.5231 25.5 29.9396 25.5H32.2951V29.25ZM18.1623 29.25C18.1623 29.6478 18.3277 30.0293 18.6222 30.3106C18.9167 30.5919 19.3161 30.75 19.7326 30.75H20.5177C20.9342 30.75 21.3336 30.5919 21.6281 30.3106C21.9226 30.0293 22.088 29.6478 22.088 29.25V27C22.088 26.6022 21.9226 26.2206 21.6281 25.9393C21.3336 25.658 20.9342 25.5 20.5177 25.5H18.1623V29.25Z" stroke="black" stroke-width="1.33333" stroke-linecap="round" stroke-linejoin="round"/>
</svg>
