<svg width="49" height="48" viewBox="0 0 49 48" fill="none" xmlns="http://www.w3.org/2000/svg">
<rect x="0.777771" y="-1.52588e-05" width="48" height="48" rx="24" fill="#C7EEFF"/>
<g clip-path="url(#clip0_0_426)">
<path d="M25.1175 15.75L18.0511 18.75V23.25C18.0511 27.4125 21.0661 31.305 25.1175 32.25C29.1689 31.305 32.1839 27.4125 32.1839 23.25V18.75L25.1175 15.75ZM30.6136 23.25C30.6136 26.64 28.2738 29.7675 25.1175 30.6975C21.9612 29.7675 19.6214 26.64 19.6214 23.25V19.725L25.1175 17.3925L30.6136 19.725V23.25ZM21.5136 23.6925L20.4066 24.75L23.5472 27.75L29.8284 21.75L28.7214 20.685L23.5472 25.6275L21.5136 23.6925Z" fill="black"/>
</g>
<defs>
<clipPath id="clip0_0_426">
<rect x="15.6957" y="15" width="18.8438" height="18" fill="white"/>
</clipPath>
</defs>
</svg>
