<svg width="188" height="235" viewBox="0 0 188 235" fill="none" xmlns="http://www.w3.org/2000/svg">
<path fill-rule="evenodd" clip-rule="evenodd" d="M7.36288 16.849H181.081C184.771 16.849 187.763 19.8418 187.763 23.5334V227.409C187.763 231.1 184.771 234.093 181.081 234.093H7.36288C3.6728 234.093 0.681396 231.1 0.681396 227.409V23.5334C0.681396 19.8418 3.6728 16.849 7.36288 16.849ZM4.02214 0.137848C5.86718 0.137848 7.36288 1.63421 7.36288 3.48007C7.36288 5.32593 5.86718 6.82229 4.02214 6.82229C2.1771 6.82229 0.681396 5.32593 0.681396 3.48007C0.681396 1.63421 2.1771 0.137848 4.02214 0.137848ZM14.0444 0.137848C15.8894 0.137848 17.3851 1.63421 17.3851 3.48007C17.3851 5.32593 15.8894 6.82229 14.0444 6.82229C12.1993 6.82229 10.7036 5.32593 10.7036 3.48007C10.7036 1.63421 12.1993 0.137848 14.0444 0.137848ZM24.0666 0.137848C25.9117 0.137848 27.4073 1.63421 27.4073 3.48007C27.4073 5.32593 25.9117 6.82229 24.0666 6.82229C22.2215 6.82229 20.7258 5.32593 20.7258 3.48007C20.7258 1.63421 22.2215 0.137848 24.0666 0.137848Z" fill="white"/>
</svg>
