<svg width="18" height="12" viewBox="0 0 18 12" fill="none" xmlns="http://www.w3.org/2000/svg">
<path d="M1.21654 7.6465L3.56633 9.99629C3.56778 9.99774 3.56934 9.99908 3.5708 10.0005C3.57225 10.002 3.57398 10.0039 3.57565 10.0056C4.26136 10.6913 5.16536 11.1154 6.13095 11.2046C7.09654 11.2938 8.06286 11.0424 8.8626 10.494C9.66234 11.0424 10.6287 11.2938 11.5942 11.2046C12.5599 11.1154 13.4638 10.6913 14.1495 10.0056L16.4993 7.65588C17.2314 6.92359 17.6637 5.94426 17.7112 4.90988C17.7588 3.87549 17.4184 2.86058 16.7566 2.06414C16.0948 1.26775 15.1595 0.747179 14.1338 0.604554C13.1082 0.461929 12.0663 0.707473 11.2123 1.29311C10.5209 0.818938 9.70215 0.565072 8.86377 0.564793C8.02534 0.56457 7.2065 0.817987 6.51476 1.29177C5.66181 0.702502 4.61932 0.453551 3.59213 0.593719C2.56494 0.733943 1.62732 1.25312 0.963399 2.0494C0.299529 2.84567 -0.0425695 3.86141 0.00422724 4.89703C0.0510812 5.93271 0.483477 6.91341 1.21654 7.6465ZM12.4883 2.46979C13.0188 2.21643 13.6217 2.1588 14.1906 2.307C14.7594 2.45516 15.2576 2.79971 15.597 3.27969C15.9364 3.75967 16.0953 4.34413 16.0454 4.92987C15.9956 5.51562 15.7403 6.06488 15.3246 6.4806L12.9749 8.83039C12.6102 9.19462 12.1416 9.43703 11.6336 9.52431C11.1256 9.61158 10.603 9.53946 10.1377 9.31785L11.7998 7.65588C12.4372 7.02178 12.8499 6.19668 12.9749 5.30631C13.0024 5.11164 13.0163 4.9153 13.0164 4.71867C13.0181 3.94138 12.8001 3.17945 12.3876 2.52061C12.4209 2.50285 12.4545 2.48598 12.4883 2.46996L12.4883 2.46979ZM7.10029 2.95619C7.5682 2.49134 8.2013 2.231 8.86087 2.23206C9.52044 2.23318 10.1526 2.4957 10.6191 2.96205C11.0854 3.42846 11.3479 4.06066 11.349 4.72023C11.3501 5.3798 11.0898 6.01288 10.6249 6.48082L8.8626 8.24313L7.10028 6.48082C6.63371 6.01307 6.37169 5.37936 6.37169 4.71867C6.37169 4.05804 6.63371 3.42432 7.10029 2.95658L7.10029 2.95619ZM2.39143 2.94686C2.75788 2.58136 3.22887 2.33883 3.73922 2.25278C4.24958 2.16672 4.77406 2.24144 5.24008 2.46661C5.27358 2.48274 5.30675 2.49967 5.33953 2.51737C4.92579 3.17694 4.7071 3.9401 4.70878 4.71867C4.70895 4.9153 4.7228 5.11164 4.75033 5.30631C4.8753 6.19668 5.28799 7.02178 5.92539 7.65588L7.57736 9.30779L7.58668 9.31712C7.12156 9.53864 6.59925 9.61081 6.09147 9.52374C5.58368 9.43666 5.11532 9.1946 4.75055 8.83078C4.74887 8.8291 4.74731 8.82731 4.74569 8.82564C4.74407 8.82396 4.74268 8.82285 4.74122 8.8214L2.40243 6.48261L2.39127 6.47144C1.92391 6.00402 1.66133 5.37009 1.66133 4.70912C1.66133 4.04815 1.92391 3.41422 2.39127 2.94681L2.39143 2.94686Z" fill="#0077C0"/>
</svg>
