<svg width="80" height="22" viewBox="0 0 80 22" fill="none" xmlns="http://www.w3.org/2000/svg">
<path d="M11.7285 20.4027C10.5421 20.6113 9.33493 20.6738 8.08612 20.8403L4.27708 9.67371V21.3195C3.09073 21.4445 2.00843 21.6112 0.88446 21.7778V0.444489H4.04826L8.37747 12.5488V0.444489H11.7285V20.4027ZM18.2849 8.25699C19.5755 8.25699 21.5528 8.19448 22.7391 8.19448V11.5277C21.2613 11.5277 19.5338 11.5277 18.2849 11.5903V16.5487C20.2415 16.4237 22.198 16.2569 24.1752 16.1944V19.4025L14.9546 20.1319V0.444489H24.1752V3.77783H18.2849V8.25699ZM36.5595 3.7779H33.1044V19.1112C31.9805 19.1112 30.8565 19.1112 29.7743 19.1528V3.7779H26.3193V0.444489H36.5596L36.5595 3.7779ZM41.9711 8.02789H46.5294V11.3611H41.9711V18.9237H38.7031V0.444489H48.0072V3.77783H41.9711V8.02789ZM53.4188 16.007C55.3129 16.0485 57.2276 16.1946 59.0802 16.2986V19.5903C56.1038 19.4027 53.1274 19.2154 50.0886 19.1528V0.444489H53.4188V16.007ZM61.89 19.8195C62.9515 19.8821 64.0755 19.9446 65.1578 20.0694V0.444489H61.89V19.8195ZM79.7485 0.444489L75.5232 10.5904L79.7485 21.7778C78.4995 21.6112 77.2507 21.382 76.0018 21.1736L73.6083 15.0071L71.1733 20.6738C69.9659 20.4653 68.8003 20.4027 67.5933 20.2361L71.8809 10.4652L68.0094 0.444489H71.5893L73.7748 6.04867L76.106 0.444489H79.7485V0.444489Z" fill="#999999"/>
</svg>
