<svg width="58" height="19" viewBox="0 0 58 19" fill="none" xmlns="http://www.w3.org/2000/svg">
<path d="M0.313599 17.1584L1.35507 14.7395C2.48053 15.5794 3.97554 16.0161 5.45376 16.0161C6.54562 16.0161 7.23433 15.5962 7.23433 14.9579C7.21754 13.1773 0.69995 14.5715 0.649557 10.1033C0.632759 7.83557 2.64851 6.08859 5.50415 6.08859C7.20074 6.08859 8.89733 6.50854 10.1068 7.46602L9.1325 9.93531C8.02384 9.2298 6.64641 8.72586 5.33617 8.72586C4.44588 8.72586 3.85796 9.14581 3.85796 9.68334C3.87475 11.4303 10.4427 10.4728 10.5099 14.7395C10.5099 17.0576 8.54457 18.687 5.72252 18.687C3.65638 18.687 1.75822 18.1999 0.313599 17.1584ZM40.2758 13.866C39.7551 14.7731 38.7808 15.3946 37.6553 15.3946C35.9923 15.3946 34.6485 14.0508 34.6485 12.3878C34.6485 10.7248 35.9923 9.38098 37.6553 9.38098C38.7808 9.38098 39.7551 10.0025 40.2758 10.9096L43.1482 9.31379C42.0732 7.39882 40.007 6.08859 37.6553 6.08859C34.1782 6.08859 31.3561 8.91063 31.3561 12.3878C31.3561 15.865 34.1782 18.687 37.6553 18.687C40.0238 18.687 42.0732 17.3936 43.1482 15.4618L40.2758 13.866ZM11.9545 0.864441H15.5493V18.4518H11.9545V0.864441ZM44.5593 0.864441V18.4518H48.154V13.1773L52.4207 18.4518H57.0233L51.5976 12.1862L56.6202 6.34056H52.2191L48.154 11.1952V0.864441H44.5593ZM26.2328 13.8996C25.712 14.7563 24.637 15.3946 23.4275 15.3946C21.7645 15.3946 20.4207 14.0508 20.4207 12.3878C20.4207 10.7248 21.7645 9.38098 23.4275 9.38098C24.637 9.38098 25.712 10.0529 26.2328 10.9264V13.8996ZM26.2328 6.34056V7.76838C25.6448 6.7773 24.1834 6.08859 22.6548 6.08859C19.4968 6.08859 17.0107 8.87704 17.0107 12.371C17.0107 15.865 19.4968 18.687 22.6548 18.687C24.1834 18.687 25.6448 17.9983 26.2328 17.0072V18.435H29.8275V6.34056H26.2328Z" fill="#999999"/>
</svg>
