<svg width="201" height="251" viewBox="0 0 201 251" fill="none" xmlns="http://www.w3.org/2000/svg">
<g clip-path="url(#clip0_0_459)">
<path d="M193.763 0.111115H6.68148C2.9914 0.111115 0 3.10384 0 6.79556V244.093C0 247.785 2.9914 250.778 6.68148 250.778H193.763C197.453 250.778 200.444 247.785 200.444 244.093V6.79556C200.444 3.10384 197.453 0.111115 193.763 0.111115Z" fill="#B8C5D0"/>
<path fill-rule="evenodd" clip-rule="evenodd" d="M13.3629 26.849H187.081C190.771 26.849 193.763 29.8418 193.763 33.5334V237.409C193.763 241.1 190.771 244.093 187.081 244.093H13.3629C9.6728 244.093 6.6814 241.1 6.6814 237.409V33.5334C6.6814 29.8418 9.6728 26.849 13.3629 26.849ZM10.0221 10.1378C11.8672 10.1378 13.3629 11.6342 13.3629 13.4801C13.3629 15.3259 11.8672 16.8223 10.0221 16.8223C8.1771 16.8223 6.6814 15.3259 6.6814 13.4801C6.6814 11.6342 8.1771 10.1378 10.0221 10.1378ZM20.0444 10.1378C21.8894 10.1378 23.3851 11.6342 23.3851 13.4801C23.3851 15.3259 21.8894 16.8223 20.0444 16.8223C18.1993 16.8223 16.7036 15.3259 16.7036 13.4801C16.7036 11.6342 18.1993 10.1378 20.0444 10.1378ZM30.0666 10.1378C31.9117 10.1378 33.4073 11.6342 33.4073 13.4801C33.4073 15.3259 31.9117 16.8223 30.0666 16.8223C28.2215 16.8223 26.7258 15.3259 26.7258 13.4801C26.7258 11.6342 28.2215 10.1378 30.0666 10.1378Z" fill="white"/>
<path d="M61.8036 46.9023H16.7036C13.0136 46.9023 10.0222 49.895 10.0222 53.5867V97.0356C10.0222 100.727 13.0136 103.72 16.7036 103.72H61.8036C65.4937 103.72 68.4851 100.727 68.4851 97.0356V53.5867C68.4851 49.895 65.4937 46.9023 61.8036 46.9023Z" fill="#B8C5D0"/>
<path fill-rule="evenodd" clip-rule="evenodd" d="M40.0889 93.3424C47.4686 93.3424 53.4518 96.7181 53.4518 100.879C53.4518 105.04 47.4686 103.386 40.0889 103.386C32.7092 103.386 26.7259 105.04 26.7259 100.879C26.7259 96.7181 32.7092 93.3424 40.0889 93.3424ZM40.0889 68.6267C46.1956 68.7086 51.0874 73.7132 51.0326 79.8228C50.978 85.9326 45.9973 90.8488 39.8902 90.8212C33.783 90.7937 28.8469 85.8328 28.8473 79.7229C28.8666 76.7598 30.0621 73.926 32.1705 71.8449C34.2788 69.7639 37.1271 68.6061 40.0889 68.6267Z" fill="#1D242B"/>
<path d="M130.289 50.2445H80.1778C79.2552 50.2445 78.5074 50.9927 78.5074 51.9156V53.5867C78.5074 54.5097 79.2552 55.2578 80.1778 55.2578H130.289C131.211 55.2578 131.959 54.5097 131.959 53.5867V51.9156C131.959 50.9927 131.211 50.2445 130.289 50.2445Z" fill="#1D242B"/>
<path d="M146.993 65.2844H80.1778C79.2552 65.2844 78.5074 66.0326 78.5074 66.9555V68.6266C78.5074 69.5496 79.2552 70.2978 80.1778 70.2978H146.993C147.915 70.2978 148.663 69.5496 148.663 68.6266V66.9555C148.663 66.0326 147.915 65.2844 146.993 65.2844Z" fill="#B8C5D0"/>
<path d="M180.4 75.3111H80.1778C79.2552 75.3111 78.5074 76.0593 78.5074 76.9822V78.6533C78.5074 79.5763 79.2552 80.3245 80.1778 80.3245H180.4C181.323 80.3245 182.07 79.5763 182.07 78.6533V76.9822C182.07 76.0593 181.323 75.3111 180.4 75.3111Z" fill="#B8C5D0"/>
<path d="M182.07 85.3378H80.1778C79.2552 85.3378 78.5074 86.086 78.5074 87.0089V88.6801C78.5074 89.603 79.2552 90.3512 80.1778 90.3512H182.07C182.993 90.3512 183.741 89.603 183.741 88.6801V87.0089C183.741 86.086 182.993 85.3378 182.07 85.3378Z" fill="#B8C5D0"/>
<path d="M153.674 95.3645H80.1778C79.2552 95.3645 78.5074 96.1127 78.5074 97.0356V98.7067C78.5074 99.6297 79.2552 100.378 80.1778 100.378H153.674C154.597 100.378 155.344 99.6297 155.344 98.7067V97.0356C155.344 96.1127 154.597 95.3645 153.674 95.3645Z" fill="#B8C5D0"/>
<path d="M61.8036 107.062H16.7036C13.0136 107.062 10.0222 110.055 10.0222 113.747V157.196C10.0222 160.887 13.0136 163.88 16.7036 163.88H61.8036C65.4937 163.88 68.4851 160.887 68.4851 157.196V113.747C68.4851 110.055 65.4937 107.062 61.8036 107.062Z" fill="#B8C5D0"/>
<path fill-rule="evenodd" clip-rule="evenodd" d="M40.0889 153.502C47.4686 153.502 53.4518 156.878 53.4518 161.039C53.4518 165.2 47.4686 163.546 40.0889 163.546C32.7092 163.546 26.7259 165.2 26.7259 161.039C26.7259 156.878 32.7092 153.502 40.0889 153.502ZM40.0889 128.787C46.1956 128.869 51.0874 133.873 51.0326 139.983C50.978 146.093 45.9973 151.009 39.8902 150.981C33.783 150.954 28.8469 145.993 28.8473 139.883C28.8666 136.92 30.0621 134.086 32.1705 132.005C34.2788 129.924 37.1271 128.766 40.0889 128.787Z" fill="#1D242B"/>
<path d="M146.993 110.404H80.1778C79.2552 110.404 78.5074 111.153 78.5074 112.076V113.747C78.5074 114.67 79.2552 115.418 80.1778 115.418H146.993C147.915 115.418 148.663 114.67 148.663 113.747V112.076C148.663 111.153 147.915 110.404 146.993 110.404Z" fill="#1D242B"/>
<path d="M182.07 125.444H80.1778C79.2552 125.444 78.5074 126.193 78.5074 127.116V128.787C78.5074 129.71 79.2552 130.458 80.1778 130.458H182.07C182.993 130.458 183.741 129.71 183.741 128.787V127.116C183.741 126.193 182.993 125.444 182.07 125.444Z" fill="#B8C5D0"/>
<path d="M177.059 135.471H80.1778C79.2552 135.471 78.5074 136.219 78.5074 137.142V138.813C78.5074 139.736 79.2552 140.484 80.1778 140.484H177.059C177.982 140.484 178.73 139.736 178.73 138.813V137.142C178.73 136.219 177.982 135.471 177.059 135.471Z" fill="#B8C5D0"/>
<path d="M173.718 145.498H80.1778C79.2552 145.498 78.5074 146.246 78.5074 147.169V148.84C78.5074 149.763 79.2552 150.511 80.1778 150.511H173.718C174.641 150.511 175.389 149.763 175.389 148.84V147.169C175.389 146.246 174.641 145.498 173.718 145.498Z" fill="#B8C5D0"/>
<path d="M153.674 155.524H80.1778C79.2552 155.524 78.5074 156.273 78.5074 157.196V158.867C78.5074 159.79 79.2552 160.538 80.1778 160.538H153.674C154.597 160.538 155.344 159.79 155.344 158.867V157.196C155.344 156.273 154.597 155.524 153.674 155.524Z" fill="#B8C5D0"/>
<path d="M61.8036 167.222H16.7036C13.0136 167.222 10.0222 170.215 10.0222 173.907V217.356C10.0222 221.047 13.0136 224.04 16.7036 224.04H61.8036C65.4937 224.04 68.4851 221.047 68.4851 217.356V173.907C68.4851 170.215 65.4937 167.222 61.8036 167.222Z" fill="#B8C5D0"/>
<path fill-rule="evenodd" clip-rule="evenodd" d="M40.0889 213.662C47.4686 213.662 53.4518 217.038 53.4518 221.199C53.4518 225.36 47.4686 223.706 40.0889 223.706C32.7092 223.706 26.7259 225.36 26.7259 221.199C26.7259 217.038 32.7092 213.662 40.0889 213.662ZM40.0889 188.947C46.1956 189.029 51.0874 194.034 51.0326 200.143C50.978 206.253 45.9973 211.169 39.8902 211.141C33.783 211.114 28.8469 206.152 28.8473 200.043C28.8666 197.08 30.0621 194.246 32.1705 192.165C34.2788 190.085 37.1271 188.927 40.0889 188.947Z" fill="#1D242B"/>
<path d="M163.696 170.564H80.1778C79.2552 170.564 78.5074 171.313 78.5074 172.236V173.907C78.5074 174.83 79.2552 175.578 80.1778 175.578H163.696C164.619 175.578 165.367 174.83 165.367 173.907V172.236C165.367 171.313 164.619 170.564 163.696 170.564Z" fill="#1D242B"/>
<path d="M130.289 185.605H80.1778C79.2552 185.605 78.5074 186.353 78.5074 187.276V188.947C78.5074 189.87 79.2552 190.618 80.1778 190.618H130.289C131.211 190.618 131.959 189.87 131.959 188.947V187.276C131.959 186.353 131.211 185.605 130.289 185.605Z" fill="#B8C5D0"/>
<path d="M168.707 195.631H80.1778C79.2552 195.631 78.5074 196.379 78.5074 197.302V198.973C78.5074 199.896 79.2552 200.644 80.1778 200.644H168.707C169.63 200.644 170.378 199.896 170.378 198.973V197.302C170.378 196.379 169.63 195.631 168.707 195.631Z" fill="#B8C5D0"/>
<path d="M175.389 205.658H80.1778C79.2552 205.658 78.5074 206.406 78.5074 207.329V209C78.5074 209.923 79.2552 210.671 80.1778 210.671H175.389C176.311 210.671 177.059 209.923 177.059 209V207.329C177.059 206.406 176.311 205.658 175.389 205.658Z" fill="#B8C5D0"/>
<path d="M145.322 215.685H80.1778C79.2552 215.685 78.5074 216.433 78.5074 217.356V219.027C78.5074 219.95 79.2552 220.698 80.1778 220.698H145.322C146.245 220.698 146.993 219.95 146.993 219.027V217.356C146.993 216.433 146.245 215.685 145.322 215.685Z" fill="#B8C5D0"/>
</g>
<defs>
<clipPath id="clip0_0_459">
<rect width="200.444" height="250.667" fill="white" transform="translate(0 0.111115)"/>
</clipPath>
</defs>
</svg>
