<svg width="9" height="13" viewBox="0 0 9 13" fill="none" xmlns="http://www.w3.org/2000/svg">
<path fill-rule="evenodd" clip-rule="evenodd" d="M0.426022 2.77413V1.16558C0.426022 0.92214 0.611132 0.75882 0.833263 0.75882H8.04323C8.27461 0.75882 8.45972 0.925222 8.45972 1.16558V2.54302C8.45664 2.77413 8.26227 3.07612 7.91674 3.55375L4.18063 8.88169C5.56895 8.84779 7.03439 9.05425 8.29312 9.763C8.57696 9.92324 8.65409 10.1574 8.67568 10.3886V12.105C8.67568 12.3391 8.41653 12.6134 8.14504 12.4717C5.92682 11.3099 2.98052 11.1836 0.527831 12.484C0.277935 12.6196 0.0157013 12.3484 0.0157013 12.1142V10.4841C0.0157013 10.2221 0.0187829 9.77533 0.281019 9.37781L4.60947 3.17781H0.842516C0.61113 3.17781 0.426022 3.01449 0.426022 2.77413Z" fill="#999999"/>
</svg>
